# xmcd CD database file
#
# Track frame offsets:
#	150
#	10307
#	19676
#	22932
#	24743
#	28004
#	29661
#	34906
#	38336
#	40948
#	44073
#	47979
#	51548
#	56495
#	60966
#	64764
#	67753
#	71423
#	74267
#	78284
#	81955
#	85521
#	88215
#	92617
#	97100
#	100093
#	104381
#	107279
#	111316
#	115396
#	122745
#	123999
#	128519
#	131806
#	134201
#	137935
#	141675
#	148463
#	152727
#	156456
#	160300
#	165998
#	169932
#	172172
#	177000
#	182026
#	183850
#	185524
#	190197
#	193010
#	197341
#
# Disc length: 2691 seconds
#
# Revision: 0
# Processed by: cddbd v1.5PL3 Copyright (c) Steve Scherf et al.
# Submitted via: CDex 1.51
#
DISCID=df0a8133
DTITLE=MICK KINSELLA - HARMONICA BLUES LESSON
DYEAR=1900
DGENRE=Blues
TTITLE0=HARMOBLUES1
TTITLE1=HARMOBLUES2
TTITLE2=HARMOBLUES3
TTITLE3=HARMOBLUES4
TTITLE4=HARMOBLUES5
TTITLE5=HARMOBLUES6
TTITLE6=HARMOBLUES7
TTITLE7=HARMOBLUES8
TTITLE8=HARMOBLUES9
TTITLE9=HARMOBLUES10
TTITLE10=HARMOBLUES11
TTITLE11=HARMOBLUES12
TTITLE12=HARMOBLUES13
TTITLE13=HARMOBLUES14
TTITLE14=HARMOBLUES15
TTITLE15=HARMOBLUES16
TTITLE16=HARMOBLUES16
TTITLE17=HARMOBLUES18
TTITLE18=HARMOBLUES19
TTITLE19=HARMOBLUES20
TTITLE20=HARMOBLUES21
TTITLE21=HARMOBLUES22
TTITLE22=HARMOBLUES23
TTITLE23=HARMOBLUES24
TTITLE24=HARMOBLUES25
TTITLE25=HARMOBLUES26
TTITLE26=HARMOBLUES27
TTITLE27=HARMOBLUES28
TTITLE28=HARMOBLUES29
TTITLE29=HARMOBLUES30
TTITLE30=HARMOBLUES31
TTITLE31=HARMOBLUES32
TTITLE32=HARMOBLUES33
TTITLE33=HARMOBLUES34
TTITLE34=HARMOBLUES35
TTITLE35=HARMOBLUES36
TTITLE36=HARMOBLUES37
TTITLE37=HARMOBLUES38
TTITLE38=HARMOBLUES39
TTITLE39=HARMOBLUES40
TTITLE40=HARMOBLUES41
TTITLE41=HARMOBLUES42
TTITLE42=HARMOBLUES43
TTITLE43=HARMOBLUES44
TTITLE44=HARMOBLUES45
TTITLE45=HARMOBLUES46
TTITLE46=HARMOBLUES47
TTITLE47=HARMOBLUES48
TTITLE48=HARMOBLUES49
TTITLE49=HARMOBLUES50
TTITLE50=HARMOBLUES51
EXTD=
EXTT0=
EXTT1=
EXTT2=
EXTT3=
EXTT4=
EXTT5=
EXTT6=
EXTT7=
EXTT8=
EXTT9=
EXTT10=
EXTT11=
EXTT12=
EXTT13=
EXTT14=
EXTT15=
EXTT16=
EXTT17=
EXTT18=
EXTT19=
EXTT20=
EXTT21=
EXTT22=
EXTT23=
EXTT24=
EXTT25=
EXTT26=
EXTT27=
EXTT28=
EXTT29=
EXTT30=
EXTT31=
EXTT32=
EXTT33=
EXTT34=
EXTT35=
EXTT36=
EXTT37=
EXTT38=
EXTT39=
EXTT40=
EXTT41=
EXTT42=
EXTT43=
EXTT44=
EXTT45=
EXTT46=
EXTT47=
EXTT48=
EXTT49=
EXTT50=
PLAYORDER=
